<?xml version="1.0" encoding="UTF-8" standalone="no"?>
<!-- Created with Inkscape (http://www.inkscape.org/) -->

<svg
   width="294"
   height="294"
   viewBox="0 0 77.787501 77.7875"
   version="1.1"
   id="svg8"
   inkscape:version="1.4.2 (ebf0e940d0, 2025-05-08)"
   sodipodi:docname="seagl-avatar-2025.inkscape.svg"
   xml:space="preserve"
   inkscape:export-filename="SeaGL 2024.png"
   inkscape:export-xdpi="167.18367"
   inkscape:export-ydpi="167.18367"
   xmlns:inkscape="http://www.inkscape.org/namespaces/inkscape"
   xmlns:sodipodi="http://sodipodi.sourceforge.net/DTD/sodipodi-0.dtd"
   xmlns="http://www.w3.org/2000/svg"
   xmlns:svg="http://www.w3.org/2000/svg"
   xmlns:rdf="http://www.w3.org/1999/02/22-rdf-syntax-ns#"
   xmlns:cc="http://creativecommons.org/ns#"
   xmlns:dc="http://purl.org/dc/elements/1.1/"><defs
     id="defs2"><clipPath
       clipPathUnits="userSpaceOnUse"
       id="clipPath993"><path
         style="fill:#ff00ff;stroke-width:0.264583"
         d="m 84.202663,254.47587 2.722047,-4.30491 -7.54971,1.84987 z"
         id="path995"
         inkscape:connector-curvature="0" /></clipPath><clipPath
       clipPathUnits="userSpaceOnUse"
       id="clipPath1030"><rect
         style="fill:#ff00ff;fill-opacity:1;stroke-width:0.299415"
         id="rect1032"
         width="11.006667"
         height="9.4872961"
         x="286.91833"
         y="319.7312"
         transform="matrix(1,0,-0.62469505,0.7808688,0,0)" /></clipPath></defs><sodipodi:namedview
     id="base"
     pagecolor="#ffffff"
     bordercolor="#8f8f8f"
     borderopacity="0.48627451"
     inkscape:pageopacity="0"
     inkscape:pageshadow="2"
     inkscape:zoom="1.645"
     inkscape:cx="147.41641"
     inkscape:cy="146.80851"
     inkscape:document-units="px"
     inkscape:current-layer="layer1"
     showgrid="false"
     units="px"
     width="128px"
     inkscape:pagecheckerboard="true"
     inkscape:showpageshadow="false"
     borderlayer="true"
     inkscape:window-width="1282"
     inkscape:window-height="991"
     inkscape:window-x="26"
     inkscape:window-y="23"
     inkscape:window-maximized="0"
     showguides="false"
     inkscape:guide-bbox="true"
     inkscape:snap-global="true"
     inkscape:object-paths="false"
     inkscape:snap-bbox="true"
     inkscape:object-nodes="true"
     inkscape:snap-nodes="true"
     inkscape:bbox-nodes="true"
     inkscape:bbox-paths="false"
     inkscape:snap-center="true"
     inkscape:snap-intersection-paths="false"
     inkscape:snap-smooth-nodes="false"
     inkscape:snap-bbox-edge-midpoints="false"
     inkscape:snap-page="true"
     inkscape:deskcolor="#d1d1d1"><sodipodi:guide
       position="39.4553,-20.076767"
       orientation="1,0"
       id="guide2428"
       inkscape:locked="false"
       inkscape:label=""
       inkscape:color="rgb(0,0,255)" /><sodipodi:guide
       position="20.695284,-5.4645928"
       orientation="0,-1"
       id="guide1"
       inkscape:locked="false" /></sodipodi:namedview><metadata
     id="metadata5"><rdf:RDF><cc:Work
         rdf:about=""><dc:format>image/svg+xml</dc:format><dc:type
           rdf:resource="http://purl.org/dc/dcmitype/StillImage" /></cc:Work></rdf:RDF></metadata><g
     inkscape:groupmode="layer"
     id="layer1"
     inkscape:label="square frame"
     transform="translate(15.113633,20.538624)"
     style="display:inline"
     sodipodi:insensitive="true"><rect
       style="display:inline;fill:#1d7193;fill-opacity:1;stroke-width:0.176508;stroke-linecap:round;stroke-linejoin:round;stroke-dasharray:none"
       id="rect1"
       width="77.787498"
       height="77.787498"
       x="-15.113638"
       y="-5.2296438"
       inkscape:label="background"
       inkscape:export-filename="../../../../../src/seagl-outreach/design/logo/seagl_avatar_profile_pic2.png"
       inkscape:export-xdpi="195.92"
       inkscape:export-ydpi="195.92"
       transform="translate(5.41e-6,-15.30898)" /></g><g
     inkscape:groupmode="layer"
     id="layer2"
     inkscape:label="logo"
     style="display:inline"
     transform="translate(15.113638,5.2296438)"><ellipse
       style="color:#000000;clip-rule:nonzero;display:inline;overflow:visible;visibility:visible;isolation:auto;mix-blend-mode:normal;color-interpolation:sRGB;color-interpolation-filters:linearRGB;solid-color:#000000;solid-opacity:1;fill:#0c5a73;fill-opacity:1;fill-rule:evenodd;stroke:none;stroke-width:1.22648;stroke-linecap:round;stroke-linejoin:round;stroke-miterlimit:4;stroke-dasharray:none;stroke-dashoffset:0;stroke-opacity:1;color-rendering:auto;image-rendering:auto;shape-rendering:auto;text-rendering:auto;enable-background:accumulate"
       id="circle1476"
       cx="23.780111"
       cy="56.541477"
       rx="52.246082"
       ry="35.143677" /><g
       id="g968"
       transform="matrix(1.2767697,0,0,1.2767697,-17.712004,-8.1744398)"
       style="stroke-width:0.977802"
       inkscape:label="seagull"><g
         transform="matrix(1.0007489,0,0,1.0007489,-0.16442922,-229.39224)"
         id="g1520"
         style="display:inline;stroke-width:0.97707"
         inkscape:label="seagull-neck"><path
           style="fill:#ffffff;fill-opacity:1;stroke-width:0.97707"
           d="m 138.96875,58.125 v 45.125 h 11.31836 V 58.125 Z"
           transform="matrix(0.26458334,0,0,0.26458334,0,229.26665)"
           id="path1143"
           inkscape:connector-curvature="0" /><path
           style="fill:#e0e0e0;fill-opacity:1;stroke-width:0.97707"
           d="m 148.375,58.125 v 45.125 h 4.22656 V 58.125 Z"
           transform="matrix(0.26458334,0,0,0.26458334,0,229.26665)"
           id="path1145"
           inkscape:connector-curvature="0" /></g><g
         id="g942"
         style="stroke-width:0.977802"
         inkscape:label="seagull-body"><path
           style="fill:#b1742a;stroke-width:0.25871"
           inkscape:connector-curvature="0"
           d="M 37.346489,41.836231 36.30707,33.129005 c 0,0 -0.177043,-0.409526 -0.791338,-0.409526 -0.614297,0 -0.604941,0.409526 -0.604941,0.409526 l 0.86618,9.882115 h 4.716879 l -1.062973,-0.804522 z"
           id="path1141"
           inkscape:label="leg-back" /><g
           style="stroke-width:0.968895"
           id="g1360"
           transform="matrix(1.0091933,0,0,1.0091933,-0.57824936,-231.69082)"
           inkscape:label="torso"><path
             id="path1147"
             d="m 18.82901,264.51643 4.06754,-0.15983 11.13485,-0.14032 5.25212,-3.42399 2.38519,-3.36777 0.32801,-0.93349 -7.31917,-7.11593 z"
             inkscape:connector-curvature="0"
             style="fill:#ffffff;fill-opacity:1;stroke-width:0.256353"
             sodipodi:nodetypes="cccccccc" /><path
             id="path1149"
             d="M 18.942648,264.51643 H 34.63944 c 3.65092,-1.5413 7.4976,-4.67653 7.35728,-8.0254 -1.77734,2.61923 -3.53626,4.39866 -5.99969,5.57567 -5.18203,2.47594 -12.62718,1.6638 -17.054382,2.44973 z"
             inkscape:connector-curvature="0"
             style="fill:#e0e0e0;fill-opacity:1;stroke-width:0.256353"
             sodipodi:nodetypes="cccac" /></g><path
           style="fill:#fcb320;stroke-width:0.25871"
           inkscape:connector-curvature="0"
           d="m 33.115365,41.836231 0.692943,-8.707226 c 0,0 -0.1767,-0.409526 -0.791349,-0.409526 -0.614296,0 -0.604588,0.409526 -0.604588,0.409526 L 31.54618,43.01112 h 4.716547 l -1.062984,-0.804522 z"
           id="path1151"
           inkscape:label="leg-front" /><g
           style="display:inline;stroke-width:0.968895"
           id="g1369"
           transform="matrix(1.0091933,0,0,1.0091933,-0.44585861,-232.09022)"
           inkscape:label="wings"><g
             id="g1163"
             transform="matrix(0.73955871,-0.66486141,0,1.4098297,-53.997234,-73.284165)"
             style="stroke-width:0.94887"><path
               inkscape:connector-curvature="0"
               id="path1159"
               d="m 100.65371,284.91444 h 13.75833 v 6.98739 h -13.75833 z"
               style="fill:#b3b3b3;fill-opacity:1;stroke-width:0.251055" /><path
               style="fill:#cccccc;fill-opacity:1;stroke-width:0.251055"
               d="m 100.65371,284.91444 h 13.75833 v 2.23125 h -13.75833 z"
               id="path1161"
               inkscape:connector-curvature="0" /></g><g
             style="stroke-width:0.968895"
             id="g1169"
             inkscape:transform-center-x="-5.1396318"
             inkscape:transform-center-y="1.2593331"
             transform="rotate(13.767645,15.59698,-5.3526325)"
             clip-path="url(#clipPath993)"><rect
               y="246.72916"
               x="79.375"
               height="10.583334"
               width="10.583333"
               id="rect1165"
               style="fill:#0d0d0d;fill-opacity:1;stroke-width:0.256353" /><rect
               style="fill:#565656;fill-opacity:1;stroke-width:0.256353"
               id="rect1167"
               width="10.583333"
               height="5.2916665"
               x="79.375"
               y="246.72916" /></g><path
             style="fill:#0d0d0d;fill-opacity:1;stroke-width:0.256353"
             d="m 17.825152,263.11501 h 8.491257 l -3.734945,3.26837 h -8.025032 z"
             id="path1171"
             inkscape:connector-curvature="0" /></g></g><g
         transform="matrix(1.0348417,0,0,1.0348417,-1.5041705,-238.04168)"
         id="g1308"
         style="stroke-width:0.944881"
         inkscape:label="seagull-head"><path
           sodipodi:nodetypes="cccscc"
           style="display:inline;fill:#e0e0e0;stroke-width:0.25"
           inkscape:connector-curvature="0"
           d="m 43.911747,244.21473 c 0,1.33603 -2.803181,3.39791 -4.287665,3.39791 l 0.03921,-0.86483 c -1.224787,0.15087 -2.179513,-1.63705 -2.179513,-3.38205 0,-1.0551 1.247522,-2.37309 2.20396,-2.37309 2.003086,0.29951 4.224008,2.80355 4.224008,3.22206 z"
           id="path1153" /><path
           sodipodi:nodetypes="ccssc"
           style="display:inline;fill:#ffffff;stroke-width:0.25"
           inkscape:connector-curvature="0"
           d="m 43.812616,244.18909 c -0.606756,1.44454 -2.711975,2.90899 -4.330664,2.90899 -1.981664,0 -3.345468,-0.90271 -3.380765,-2.88335 -0.03641,-2.04195 1.573883,-3.37085 3.58658,-3.37089 2.015259,-5e-5 3.700576,2.17783 4.124849,3.34525 z"
           id="path1155" /><path
           style="fill:#0d0d0d;fill-opacity:1;stroke-width:0.25"
           inkscape:connector-curvature="0"
           d="m 40.997334,243.02474 c 0,0.2311 -0.186948,0.41805 -0.418413,0.41805 -0.230386,0 -0.818301,-0.41805 -0.818301,-0.41805 0,0 0.587552,-0.417 0.818301,-0.417 0.231465,-3.5e-4 0.418413,0.18695 0.418413,0.417 z"
           id="path1157"
           inkscape:label="eye" /><g
           id="g3"
           inkscape:label="beak"
           style="display:inline"><path
             style="fill:#b1742a;fill-opacity:1;stroke-width:0.25"
             d="m 42.012911,244.44134 1.490605,0.79542 3.489901,-0.2195 1.37229,0.29334 0.508511,-0.58899 -5.780289,-0.60696 z"
             id="path1173"
             inkscape:connector-curvature="0"
             sodipodi:nodetypes="ccccccc" /><path
             sodipodi:nodetypes="cccccc"
             inkscape:connector-curvature="0"
             id="path1175"
             d="m 43.381174,243.34004 -1.368263,1.1013 6.992071,0.35537 -0.485077,-0.90422 -1.114429,-0.013 z"
             style="fill:#fcb320;stroke-width:0.25" /><path
             sodipodi:nodetypes="cccc"
             inkscape:connector-curvature="0"
             id="path1177"
             d="m 48.155597,244.88693 -0.789168,0.21006 0.93456,0.19978 z"
             style="fill:#96412a;fill-opacity:1;stroke-width:0.25" /></g><g
           id="g2"
           transform="matrix(0.46330927,0,0,0.46330927,-3.2019534,223.6535)"
           inkscape:label="headset"
           style="display:inline"><rect
             y="37.218666"
             x="87.698402"
             height="5.0154705"
             width="1.5319033"
             id="rect877"
             style="opacity:1;fill:#000000;fill-opacity:1;stroke-width:0.539488" /><path
             id="path899"
             d="m 88.34319,44.295706 3.256596,3.363272 3.923846,0.622488 2.734963,-0.124818"
             style="opacity:1;fill:none;stroke:#000000;stroke-width:0.539488px;stroke-linecap:butt;stroke-linejoin:miter;stroke-opacity:1"
             sodipodi:nodetypes="cccc" /><circle
             r="2.3743463"
             cy="43.800079"
             cx="88.439606"
             id="path50"
             style="opacity:1;fill:#000000;fill-opacity:1;fill-rule:evenodd;stroke-width:0.539488" /><ellipse
             ry="1.2785718"
             rx="1.2707763"
             cy="47.817074"
             cx="98.218819"
             id="path901"
             style="opacity:1;fill:#000000;fill-opacity:1;stroke-width:0.539488" /></g></g></g><text
       xml:space="preserve"
       style="font-weight:bold;font-size:10.5833px;line-height:1.25;font-family:Roboto;-inkscape-font-specification:'Roboto, Bold';text-align:center;text-anchor:middle;fill:#ffffff;stroke-width:0.264583"
       x="-1.1171006"
       y="60.388504"
       id="text1"><tspan
         sodipodi:role="line"
         id="tspan1"
         style="font-style:normal;font-variant:normal;font-weight:600;font-stretch:normal;font-size:10.5833px;font-family:Dosis;-inkscape-font-specification:'Dosis Semi-Bold';text-align:start;text-anchor:start;fill:#ffffff;stroke-width:0.264583"
         x="-1.1171006"
         y="60.388504">SeaGL 2025</tspan></text></g><g
     inkscape:groupmode="layer"
     id="layer3"
     inkscape:label="circle crop"
     style="display:none"
     transform="translate(15.113633,20.076767)"
     sodipodi:insensitive="true"><path
       id="rect2"
       style="fill:#ffffff;fill-opacity:1;stroke-width:0.176389;stroke-linecap:round;stroke-linejoin:round;stroke-opacity:0.5"
       d="M -85.842651,-82.785601 V 128.34105 H 128.58974 V -82.785601 Z m 109.622767,62.708834 a 38.893749,38.893749 0 0 1 38.89375,38.893751 38.893749,38.893749 0 0 1 -38.89375,38.89375 38.893749,38.893749 0 0 1 -38.89375,-38.89375 38.893749,38.893749 0 0 1 38.89375,-38.893751 z" /></g></svg>
